HIERARCHY
ROOT root
{
	OFFSET	0	13.1	24.9
	CHANNELS 6  Xposition Yposition Zposition Xrotation Yrotation Zrotation
	JOINT spine_1
	{
		OFFSET	0	9.99999	0
		CHANNELS 3  Xrotation Yrotation Zrotation
		JOINT spine_2
		{
			OFFSET	0	112	-10
			CHANNELS 3  Xrotation Yrotation Zrotation
			JOINT spine_3
			{
				OFFSET	0	206.5	19.3
				CHANNELS 3  Xrotation Yrotation Zrotation
				JOINT spine_4
				{
					OFFSET	0	110.4	14.6
					CHANNELS 3  Xrotation Yrotation Zrotation
					JOINT neck_1
					{
						OFFSET	0	71.8	-50.3
						CHANNELS 3  Xrotation Yrotation Zrotation
						JOINT neck_2
						{
							OFFSET	0	86.2	-25.8
							CHANNELS 3  Xrotation Yrotation Zrotation
							JOINT head_ee
							{
								OFFSET	0	179.8	-8.7
								CHANNELS 3  Xrotation Yrotation Zrotation
								End Site
								{
									OFFSET	1	0	0
								}
							}
						}
					}
					JOINT left_clavicle
					{
						OFFSET	-43.2	22.4	-70.8
						CHANNELS 3  Xrotation Yrotation Zrotation
						JOINT left_shoulder
						{
							OFFSET	-93.9	-5.79999	48.7
							CHANNELS 3  Xrotation Yrotation Zrotation
							JOINT left_elbow
							{
								OFFSET	-291.4	-30.8	15.2
								CHANNELS 3  Xrotation Yrotation Zrotation
								JOINT left_lowarm_twist
								{
									OFFSET	-110.7	-3.89999	13.6
									CHANNELS 3  Xrotation Yrotation Zrotation
									JOINT left_hand
									{
										OFFSET	-110.7	-3.89999	13.6
										CHANNELS 3  Xrotation Yrotation Zrotation
										JOINT left_ee
										{
											OFFSET	-80.8	-5.10001	12.1
											CHANNELS 3  Xrotation Yrotation Zrotation
											End Site
											{
												OFFSET	1	0	0
											}
										}
									}
								}
							}
						}
					}
					JOINT right_clavicle
					{
						OFFSET	43.2	22.4	-70.8
						CHANNELS 3  Xrotation Yrotation Zrotation
						JOINT right_shoulder
						{
							OFFSET	93.9	-5.79999	48.7
							CHANNELS 3  Xrotation Yrotation Zrotation
							JOINT right_elbow
							{
								OFFSET	291.4	-30.8	15.2
								CHANNELS 3  Xrotation Yrotation Zrotation
								JOINT right_lowarm_twist
								{
									OFFSET	110.7	-3.89999	13.6
									CHANNELS 3  Xrotation Yrotation Zrotation
									JOINT right_hand
									{
										OFFSET	110.7	-3.89999	13.6
										CHANNELS 3  Xrotation Yrotation Zrotation
										JOINT right_ee
										{
											OFFSET	80.8	-5.10001	12.1
											CHANNELS 3  Xrotation Yrotation Zrotation
											End Site
											{
												OFFSET	1	0	0
											}
										}
									}
								}
							}
						}
					}
				}
			}
		}
	}
	JOINT left_hip
	{
		OFFSET	-82.8	-127.5	0.300001
		CHANNELS 3  Xrotation Yrotation Zrotation
		JOINT left_knee
		{
			OFFSET	-28.2	-396.7	2.2
			CHANNELS 3  Xrotation Yrotation Zrotation
			JOINT left_ankle
			{
				OFFSET	-11.7	-411.3	35.4
				CHANNELS 3  Xrotation Yrotation Zrotation
				JOINT left_toes
				{
					OFFSET	0	-60	-88.6
					CHANNELS 3  Xrotation Yrotation Zrotation
					JOINT left_foot_ee
					{
						OFFSET	-22.5	-16.5	-42.2
						CHANNELS 3  Xrotation Yrotation Zrotation
						End Site
						{
							OFFSET	1	0	0
						}
					}
				}
			}
		}
	}
	JOINT right_hip
	{
		OFFSET	82.8	-127.5	0.300001
		CHANNELS 3  Xrotation Yrotation Zrotation
		JOINT right_knee
		{
			OFFSET	28.2	-396.7	2.2
			CHANNELS 3  Xrotation Yrotation Zrotation
			JOINT right_ankle
			{
				OFFSET	11.7	-411.3	35.4
				CHANNELS 3  Xrotation Yrotation Zrotation
				JOINT right_toes
				{
					OFFSET	0	-60	-88.6
					CHANNELS 3  Xrotation Yrotation Zrotation
					JOINT right_foot_ee
					{
						OFFSET	22.5	-16.5	-42.2
						CHANNELS 3  Xrotation Yrotation Zrotation
						End Site
						{
							OFFSET	1	0	0
						}
					}
				}
			}
		}
	}
}
MOTION
Frames: 12
Frame Time: 0.02
2545.15924752 776.834 -1560.50436572 -11.144288432 82.4581062332 5.0002216055 1.92955 0.128035 2.36197 1.93265 -0.0224801 2.36533 1.93157 -0.441282 2.32393 1.92404 -0.0688292 2.36443 -6.1416 6.73026 -3.23435 -6.07579 14.8202 -1.98803 -0.0 0.0 -0.0 4.884 4.97612 9.57257 -40.8827 -22.204 57.9502 0.849594 -22.8243 0.171499 7.97255 0.21192 -0.995539 -1.93386 17.1486 -4.81503 -0.0 0.0 -0.0 4.52269 2.95537 -8.59848 -7.21693 32.7371 -64.8326 1.74984 40.9157 -0.652816 -28.2276 1.79479 -3.09357 0.997185 -3.73744 -8.17691 0.0 0.0 0.0 9.14948 -5.74425 3.39348 -26.4677 0.163074 4.02248 35.3636 26.6705 -4.75099 -8.29362 0.0 0.0 -0.0 0.0 -0.0 23.9435 33.6691 -5.14621 -18.4035 -0.311222 -2.7949 -1.97741 -5.68622 -0.29103 -4.92724 0.0 0.0 0.0 0.0 0.0 
2535.91432415 776.775 -1552.40122797 -13.2587725131 83.4826972711 6.70801162457 1.89037 0.218277 2.52459 1.89392 0.0572409 2.53335 1.89636 -0.394101 2.50318 1.88762 0.0060442 2.53399 -6.55207 6.72494 -3.43664 -6.49173 14.9636 -2.13819 -0.0 0.0 -0.0 4.86202 5.12659 9.53486 -41.3533 -22.4417 58.772 0.770561 -20.8925 0.142069 8.23946 0.216604 -1.02931 -1.85852 17.7494 -4.06619 -0.0 0.0 -0.0 4.59371 2.51322 -8.76079 -5.76048 32.7782 -64.6184 1.80962 41.8701 -0.692343 -28.4037 1.81057 -3.10973 0.864061 -3.75233 -7.29556 0.0 0.0 0.0 10.1621 -5.03342 2.83852 -25.6672 0.185491 3.90168 34.7245 27.142 -4.69719 -8.54526 0.0 0.0 -0.0 0.0 -0.0 23.5339 33.4119 -5.35713 -18.7262 -0.308622 -2.84435 -1.84161 -6.55894 -0.270792 -4.30347 0.0 0.0 0.0 0.0 0.0 
2529.25777221 766.358 -1548.95878645 -16.0814908287 83.7732915093 9.81803143823 1.92674 0.349728 2.56048 1.93036 0.186144 2.57753 1.9387 -0.273089 2.56978 1.92951 0.136047 2.58066 -6.82426 6.9627 -3.41312 -6.77092 15.3907 -2.0297 -0.0 0.0 -0.0 4.6457 5.07826 9.13279 -41.89 -22.5 59.0281 0.715548 -19.5175 0.123067 8.75922 0.225275 -1.09514 -1.68402 18.4903 -2.65879 -0.0 0.0 -0.0 4.79973 2.43259 -9.17361 -3.99298 32.9342 -64.6706 1.98348 44.491 -0.811349 -28.2476 1.79658 -3.09541 0.691976 -3.63224 -6.10318 0.0 0.0 0.0 11.6566 -4.37517 1.31772 -22.0531 0.265599 3.35294 31.7615 27.2724 -4.37086 -9.52691 0.0 0.0 -0.0 0.0 -0.0 22.4665 32.8264 -4.75011 -18.8112 -0.30789 -2.85738 -1.44469 -7.16186 -0.212179 -3.83566 0.0 0.0 0.0 0.0 0.0 
2501.67560369 780.186 -1560.45795496 -9.71032572526 79.9247220199 2.68375306524 1.73516 0.754421 3.0717 1.74024 0.557529 3.11342 1.77105 -0.0112684 3.16288 1.75742 0.488143 3.12504 -6.56357 8.65303 -2.28845 -6.52076 17.7052 -0.598088 -0.0 0.0 -0.0 4.22152 4.8606 8.34066 -44.6744 -22.2413 60.1531 0.658397 -18.0639 0.104657 12.1607 0.267238 -1.52753 -0.995144 19.5901 1.96105 -0.0 0.0 -0.0 5.15952 3.30824 -9.85515 -6.80392 33.6002 -66.6225 2.65086 52.7008 -1.31322 -28.2166 1.79381 -3.09256 -0.00968029 -3.05672 -1.21862 0.0 0.0 0.0 11.8086 -3.56727 -0.685964 -18.1187 0.313285 2.75126 19.3161 28.3187 -2.83571 -11.9894 0.0 0.0 -0.0 0.0 -0.0 12.0811 28.7385 -2.11163 -10.0783 -0.281966 -1.51901 2.40129 -5.9159 0.349608 -2.6215 0.0 0.0 0.0 0.0 0.0 
2443.21858726 777.165 -1561.20087472 -24.6516444997 80.588601994 17.7463677054 2.47938 0.580869 3.13964 2.48479 0.380012 3.1702 2.50503 -0.155501 3.18909 2.49101 0.349848 3.17367 -5.79615 14.3518 -1.06995 -5.68154 27.32 1.5844 -0.0 0.0 -0.0 3.39392 4.31732 6.78371 -46.4202 -24.311 56.371 0.946698 -25.1246 0.210963 13.4589 0.276475 -1.69309 -0.40122 21.8399 6.4017 -0.0 0.0 -0.0 5.29375 3.82856 -10.104 -17.9632 32.7243 -66.2444 2.84668 54.6477 -1.47101 -25.0956 1.52281 -2.79834 -1.08259 -3.35612 5.75569 0.0 0.0 0.0 6.64744 -0.331895 -0.445704 -6.75049 0.218501 1.01236 -5.55528 29.8098 0.882238 -17.4662 0.0 0.0 -0.0 0.0 -0.0 4.7212 20.1698 -0.726573 5.38399 0.258851 0.785143 5.01098 -1.93636 0.727985 -2.57994 0.0 0.0 0.0 0.0 0.0 
2442.94409478 777.165 -1560.07005117 -25.115379179 80.7528482809 18.2163178627 2.47938 0.580869 3.13964 2.48479 0.380012 3.1702 2.50503 -0.155501 3.18909 2.49101 0.349848 3.17367 -5.79615 14.3518 -1.06995 -5.68154 27.32 1.5844 -0.0 0.0 -0.0 3.39392 4.31732 6.78371 -46.4202 -24.311 56.371 0.946698 -25.1246 0.210963 13.4589 0.276475 -1.69309 -0.40122 21.8399 6.4017 -0.0 0.0 -0.0 5.29375 3.82856 -10.104 -17.9632 32.7243 -66.2444 2.84668 54.6477 -1.47101 -25.0956 1.52281 -2.79834 -1.08259 -3.35612 5.75569 0.0 0.0 0.0 6.64744 -0.331895 -0.445704 -6.75049 0.218501 1.01236 -5.55528 29.8098 0.882238 -17.4662 0.0 0.0 -0.0 0.0 -0.0 4.7212 20.1698 -0.726573 5.38399 0.258851 0.785143 5.01098 -1.93636 0.727985 -2.57994 0.0 0.0 0.0 0.0 0.0 
2442.76473217 777.165 -1559.32258326 -25.4308810037 80.8610001833 18.5359246904 2.47938 0.580869 3.13964 2.48479 0.380012 3.1702 2.50503 -0.155501 3.18909 2.49101 0.349848 3.17367 -5.79615 14.3518 -1.06995 -5.68154 27.32 1.5844 -0.0 0.0 -0.0 3.39392 4.31732 6.78371 -46.4202 -24.311 56.371 0.946698 -25.1246 0.210963 13.4589 0.276475 -1.69309 -0.40122 21.8399 6.4017 -0.0 0.0 -0.0 5.29375 3.82856 -10.104 -17.9632 32.7243 -66.2444 2.84668 54.6477 -1.47101 -25.0956 1.52281 -2.79834 -1.08259 -3.35612 5.75569 0.0 0.0 0.0 6.64744 -0.331895 -0.445704 -6.75049 0.218501 1.01236 -5.55528 29.8098 0.882238 -17.4662 0.0 0.0 -0.0 0.0 -0.0 4.7212 20.1698 -0.726573 5.38399 0.258851 0.785143 5.01098 -1.93636 0.727985 -2.57994 0.0 0.0 0.0 0.0 0.0 
2442.22849829 777.165 -1557.04559986 -26.4387260835 81.1883246059 19.5562584001 2.47938 0.580869 3.13964 2.48479 0.380012 3.1702 2.50503 -0.155501 3.18909 2.49101 0.349848 3.17367 -5.79615 14.3518 -1.06995 -5.68154 27.32 1.5844 -0.0 0.0 -0.0 3.39392 4.31732 6.78371 -46.4202 -24.311 56.371 0.946698 -25.1246 0.210963 13.4589 0.276475 -1.69309 -0.40122 21.8399 6.4017 -0.0 0.0 -0.0 5.29375 3.82856 -10.104 -17.9632 32.7243 -66.2444 2.84668 54.6477 -1.47101 -25.0956 1.52281 -2.79834 -1.08259 -3.35612 5.75569 0.0 0.0 0.0 6.64744 -0.331895 -0.445704 -6.75049 0.218501 1.01236 -5.55528 29.8098 0.882238 -17.4662 0.0 0.0 -0.0 0.0 -0.0 4.7212 20.1698 -0.726573 5.38399 0.258851 0.785143 5.01098 -1.93636 0.727985 -2.57994 0.0 0.0 0.0 0.0 0.0 
2441.79609921 777.165 -1555.16057386 -27.330289882 81.4567175972 20.4581429669 2.47938 0.580869 3.13964 2.48479 0.380012 3.1702 2.50503 -0.155501 3.18909 2.49101 0.349848 3.17367 -5.79615 14.3518 -1.06995 -5.68154 27.32 1.5844 -0.0 0.0 -0.0 3.39392 4.31732 6.78371 -46.4202 -24.311 56.371 0.946698 -25.1246 0.210963 13.4589 0.276475 -1.69309 -0.40122 21.8399 6.4017 -0.0 0.0 -0.0 5.29375 3.82856 -10.104 -17.9632 32.7243 -66.2444 2.84668 54.6477 -1.47101 -25.0956 1.52281 -2.79834 -1.08259 -3.35612 5.75569 0.0 0.0 0.0 6.64744 -0.331895 -0.445704 -6.75049 0.218501 1.01236 -5.55528 29.8098 0.882238 -17.4662 0.0 0.0 -0.0 0.0 -0.0 4.7212 20.1698 -0.726573 5.38399 0.258851 0.785143 5.01098 -1.93636 0.727985 -2.57994 0.0 0.0 0.0 0.0 0.0 
2442.19944752 777.165 -1556.92036378 -26.4962955252 81.2062307939 19.6145140275 2.47938 0.580869 3.13964 2.48479 0.380012 3.1702 2.50503 -0.155501 3.18909 2.49101 0.349848 3.17367 -5.79615 14.3518 -1.06995 -5.68154 27.32 1.5844 -0.0 0.0 -0.0 3.39392 4.31732 6.78371 -46.4202 -24.311 56.371 0.946698 -25.1246 0.210963 13.4589 0.276475 -1.69309 -0.40122 21.8399 6.4017 -0.0 0.0 -0.0 5.29375 3.82856 -10.104 -17.9632 32.7243 -66.2444 2.84668 54.6477 -1.47101 -25.0956 1.52281 -2.79834 -1.08259 -3.35612 5.75569 0.0 0.0 0.0 6.64744 -0.331895 -0.445704 -6.75049 0.218501 1.01236 -5.55528 29.8098 0.882238 -17.4662 0.0 0.0 -0.0 0.0 -0.0 4.7212 20.1698 -0.726573 5.38399 0.258851 0.785143 5.01098 -1.93636 0.727985 -2.57994 0.0 0.0 0.0 0.0 0.0 
2442.08581231 777.165 -1556.42856861 -26.7246155204 81.2764460026 19.845527941 2.47938 0.580869 3.13964 2.48479 0.380012 3.1702 2.50503 -0.155501 3.18909 2.49101 0.349848 3.17367 -5.79615 14.3518 -1.06995 -5.68154 27.32 1.5844 -0.0 0.0 -0.0 3.39392 4.31732 6.78371 -46.4202 -24.311 56.371 0.946698 -25.1246 0.210963 13.4589 0.276475 -1.69309 -0.40122 21.8399 6.4017 -0.0 0.0 -0.0 5.29375 3.82856 -10.104 -17.9632 32.7243 -66.2444 2.84668 54.6477 -1.47101 -25.0956 1.52281 -2.79834 -1.08259 -3.35612 5.75569 0.0 0.0 0.0 6.64744 -0.331895 -0.445704 -6.75049 0.218501 1.01236 -5.55528 29.8098 0.882238 -17.4662 0.0 0.0 -0.0 0.0 -0.0 4.7212 20.1698 -0.726573 5.38399 0.258851 0.785143 5.01098 -1.93636 0.727985 -2.57994 0.0 0.0 0.0 0.0 0.0 
2429.81268655 780.624 -1567.87824265 -21.7965467811 79.5164352161 14.8966291493 2.4598 0.663201 2.88054 2.46429 0.478641 2.91686 2.48811 -0.0166023 2.95579 2.4762 0.450215 2.92138 -6.74459 14.4211 -1.74472 -6.7002 28.0429 1.15709 -0.0 0.0 -0.0 3.36837 4.80971 6.76165 -44.9858 -24.025 54.5525 0.970497 -25.6757 0.221171 12.7462 0.271868 -1.60217 -0.999855 21.6458 2.81686 -0.0 0.0 -0.0 5.56201 5.80682 -10.5672 -20.93 33.6828 -66.186 2.36511 49.511 -1.09073 -23.78 1.41348 -2.67002 -0.935627 -3.77442 4.59575 0.0 0.0 0.0 6.50004 0.674011 -0.224372 -6.44077 0.211099 0.965408 -10.2593 29.6485 1.63845 -17.9944 0.0 0.0 -0.0 0.0 -0.0 3.21535 21.0082 -0.334248 6.00179 0.293254 0.873625 5.14328 1.09196 0.752298 -3.77484 0.0 0.0 0.0 0.0 0.0 
